<?xml version="1.0" encoding="utf-8"?>
<!-- Uploaded to: SVG Repo, www.svgrepo.com, Generator: SVG Repo Mixer Tools -->
<svg width="800px" height="800px" viewBox="0 0 1024 1024" class="icon"  version="1.1" xmlns="http://www.w3.org/2000/svg"><path d="M654.4 307.3s21.9-44 25-62.7c0 0 19.6-49.7 0-62.4 0 0-7.5-25.5-20-11.4l-26.9 25.6 21.9 110.9z" fill="#FFFFFF" /><path d="M653.2 316.5l-24-121.2 28-26.7c3.7-4.2 7.6-5.8 11.6-4.9 7.6 1.7 11.9 12.9 13.1 16.5 19.3 14.3 2.1 60.5 0.4 65.1-3.3 19-24.3 61.4-25.2 63.2l-3.9 8z m-17.5-119L655.6 298c6.4-13.5 18.6-40.5 20.8-53.8l0.1-0.3 0.1-0.3c5.2-13.2 15.5-49.5 1.2-58.8l-0.9-0.6-0.3-1.1c-1.2-4-4.9-12.5-9-13.4-1.7-0.4-3.7 0.7-5.9 3.2l-0.2 0.2-25.8 24.4z" fill="#843A5F" /><path d="M376.5 298.6s-70.6-55.3-50.6-78c0 0 11.1-53.3 30.2-56l6.6-13.8 31.1 21.1-17.3 126.7z" fill="#FFFFFF" /><path d="M378.7 304.1l-4.1-3.2c-2.2-1.7-52.7-41.6-55.2-68.5-0.5-5.1 0.8-9.6 3.7-13.2 1.7-8.1 12.1-52.3 30.9-57.3l7.5-15.6 35.5 24.1-18.3 133.7z m-14.8-148.9l-5.8 12.1-1.6 0.2c-13.9 1.9-24.7 39.4-27.7 53.6l-0.2 0.8-0.5 0.6c-2.2 2.5-3.1 5.5-2.7 9.3 1.9 20.2 36.7 50.9 48.8 61l16.3-119.5-26.6-18.1z" fill="#843A5F" /><path d="M510.9 651m-214 0a214 214 0 1 0 428 0 214 214 0 1 0-428 0Z" fill="#AE9AA4" /><path d="M510.9 868.1c-58 0-112.5-22.6-153.5-63.6S293.8 709 293.8 651s22.6-112.5 63.6-153.5 95.5-63.6 153.5-63.6 112.5 22.6 153.5 63.6S728 593 728 651s-22.6 112.5-63.6 153.5-95.5 63.6-153.5 63.6z m0-428.1c-116.4 0-211 94.7-211 211 0 116.4 94.7 211 211 211s211-94.7 211-211-94.6-211-211-211z" fill="#843A5F" /><path d="M510.9 572.3l-70.4-122h140.8z" fill="#FFFFFF" /><path d="M510.9 578.3l-75.6-131h151.3l-75.7 131z m-65.2-125l65.2 113 65.2-113H445.7z" fill="#843A5F" /><path d="M512.3 452.2l-43.4 75.1h86.8z" fill="#843A5F" /><path d="M369.3 177.5v193.7c0 43.5 35.6 79.1 79.1 79.1h127.8c43.5 0 79.1-35.6 79.1-79.1V177.5" fill="#E6D8DF" /><path d="M576.2 453.3H448.4c-45.3 0-82.1-36.8-82.1-82.1V177.5h6v193.7c0 42 34.1 76.1 76.1 76.1h127.8c42 0 76.1-34.1 76.1-76.1V177.5h6v193.7c0 45.3-36.8 82.1-82.1 82.1z" fill="#843A5F" /><path d="M431.7 259.6m-67.9 0a67.9 67.9 0 1 0 135.8 0 67.9 67.9 0 1 0-135.8 0Z" fill="#FFFFFF" /><path d="M431.7 330.5c-39.1 0-70.9-31.8-70.9-70.9s31.8-70.9 70.9-70.9c39.1 0 70.9 31.8 70.9 70.9s-31.8 70.9-70.9 70.9z m0-135.8c-35.8 0-64.9 29.1-64.9 64.9s29.1 64.9 64.9 64.9 64.9-29.1 64.9-64.9-29.1-64.9-64.9-64.9z" fill="#843A5F" /><path d="M592.3 259.6m-67.9 0a67.9 67.9 0 1 0 135.8 0 67.9 67.9 0 1 0-135.8 0Z" fill="#FFFFFF" /><path d="M592.3 330.5c-39.1 0-70.9-31.8-70.9-70.9s31.8-70.9 70.9-70.9c39.1 0 70.9 31.8 70.9 70.9s-31.8 70.9-70.9 70.9z m0-135.8c-35.8 0-64.9 29.1-64.9 64.9s29.1 64.9 64.9 64.9 64.9-29.1 64.9-64.9-29.1-64.9-64.9-64.9z" fill="#843A5F" /><path d="M531.7 274.3h-6c0-7.4-6-13.4-13.4-13.4s-13.4 6-13.4 13.4h-6c0-10.7 8.7-19.4 19.4-19.4s19.4 8.7 19.4 19.4zM512.1 439.1c-8.4 0-18.3-2-18.3-7.7h6c0-0.4-0.2-0.7-0.2-0.8 0.7 0.8 5.3 2.4 12.5 2.4s11.8-1.6 12.5-2.4c-0.1 0.1-0.2 0.3-0.2 0.8h6c-0.1 5.7-9.9 7.7-18.3 7.7z" fill="#843A5F" /><path d="M379.7 87.4s-58.1 26.6-10.4 84.9c0 0-18.8 19.4 94 10.4 0 0 39.6 8.7 76.3 4.5 0 0 64.6 5.6 115.7-9 0 0 14.2-29.2 5-32.9-9.2-3.7-3.1-30.8-71-23.3 0 0-41.1-40-83.2-27.4 0 0-43.2-6-68.8 15.8-0.2-0.2-54.2 20-57.6-23z" fill="#FFFFFF" /><path d="M517.8 191.3c-27.2 0-51-4.8-54.7-5.6-33.7 2.7-59 3.1-75.3 1.2-12.9-1.5-19.9-4.3-22-8.9-1-2-0.7-4-0.1-5.5-15.1-19-20.8-36.8-17.1-53C354 96 377.5 85 378.5 84.6l3.9-1.8 0.3 4.3c0.7 9.6 4.3 16.5 10.5 20.4 14.3 9.1 38.7 1.2 42.4 0 24.9-20.7 64.4-16.9 70.1-16.2 39.8-11.4 77.7 21.1 84.5 27.4 52.6-5.5 61.8 9.9 67.4 19.1 1.4 2.3 2.5 4.1 3.7 4.6 1.9 0.8 3.4 2.3 4.2 4.4 3.5 9.2-6.4 30.2-7.6 32.6l-0.6 1.2-1.3 0.4c-49.2 14.1-111.5 9.5-116.5 9.1-7.1 0.9-14.5 1.2-21.7 1.2z m-54.3-11.6l0.4 0.1c0.4 0.1 39.5 8.6 75.3 4.4h0.6c0.6 0.1 63.6 5.3 113.3-8.5 3.8-8.2 8.7-21.7 6.8-26.6-0.3-0.7-0.6-0.9-0.8-1-3.1-1.3-4.8-4.1-6.6-7-4.9-8.1-13-21.6-63-16.1l-1.4 0.2-1-1c-0.4-0.4-40.4-38.6-80.3-26.7l-0.6 0.2-0.6-0.1c-0.4-0.1-42.2-5.5-66.5 15.1l-0.4 0.3-0.5 0.2c-1.2 0.5-30.2 11.1-48.2-0.4-6.8-4.4-11.1-11.2-12.7-20.5-6.4 3.9-19.3 13.5-22.8 28.8-3.4 14.7 2.4 31.3 17.2 49.4l1.7 2.1-1.9 1.9c-0.1 0.1-0.5 0.6-0.2 1.1 0.9 1.8 9.7 10.7 91.8 4.2l0.4-0.1z" fill="#843A5F" /><path d="M748.5 917.4H274c-6.6 0-12-5.4-12-12V529.8c0-6.6 5.4-12 12-12h474.5c6.6 0 12 5.4 12 12v375.6c0 6.6-5.4 12-12 12z" fill="#FFFFFF" /><path d="M748.5 920.4H274c-8.3 0-15-6.7-15-15V529.8c0-8.3 6.7-15 15-15h474.5c8.3 0 15 6.7 15 15v375.6c0 8.2-6.7 15-15 15zM274 520.8c-5 0-9 4-9 9v375.6c0 5 4 9 9 9h474.5c5 0 9-4 9-9V529.8c0-5-4-9-9-9H274z" fill="#843A5F" /><path d="M286.2 744.1c-12.9 18-33.9 18-46.8 0-12.9-18-12.9-47.1 0-65 12.9-18 33.9-18 46.8 0 12.9 17.9 12.9 47.1 0 65z" fill="#E6D8DF" /><path d="M262.8 760.6c-9.8 0-19-5.2-25.8-14.7-13.6-18.9-13.6-49.7 0-68.6 6.8-9.5 16-14.7 25.8-14.7s19 5.2 25.8 14.7c13.6 18.9 13.6 49.7 0 68.6-6.8 9.5-16 14.7-25.8 14.7z m0-92c-7.8 0-15.3 4.3-21 12.2-12.2 17-12.2 44.6 0 61.5 5.7 7.9 13.1 12.2 21 12.2 7.8 0 15.3-4.3 21-12.2 12.2-17 12.2-44.6 0-61.5-5.7-7.9-13.2-12.2-21-12.2z" fill="#843A5F" /><path d="M784.3 744.1c-12.9 18-33.9 18-46.8 0-12.9-18-12.9-47.1 0-65 12.9-18 33.9-18 46.8 0s13 47.1 0 65z" fill="#E6D8DF" /><path d="M760.9 760.6c-9.8 0-19-5.2-25.8-14.7-13.6-18.9-13.6-49.7 0-68.6 6.8-9.5 16-14.7 25.8-14.7s19 5.2 25.8 14.7c13.6 18.9 13.6 49.7 0 68.6-6.7 9.5-15.9 14.7-25.8 14.7z m0-92c-7.8 0-15.3 4.3-21 12.2-12.2 17-12.2 44.6 0 61.5 5.7 7.9 13.1 12.2 21 12.2 7.8 0 15.3-4.3 21-12.2 12.2-17 12.2-44.6 0-61.5-5.7-7.9-13.1-12.2-21-12.2z" fill="#843A5F" /><path d="M507.8 366.2s-44.6-7.4-58.4 6.8c0 0-17.5 15.7-7.8 35.5l3.8 12.3 19-7.5 7 13.9 5.1-16.5c0.6-2 3.6-1.9 4 0.2l2.2 11.6 12.4-15.3 22.1 18.8 2.7-17.3 12.8 11.3 11.5-12.8 4.3 16 14.5-16 12.5 16.5 8.3-14.3s12.8-19 2.3-29.5c0 0-1.8-18-15.8-17l-62.5 3.3z" fill="#FFFFFF" /><path d="M472.1 435l-9.1-18-19.5 7.7-4.6-15.1c-10-20.6 7-37.3 8.4-38.7 14.2-14.6 56.2-8.4 60.7-7.7l62-3.2c12.7-0.9 17.7 11.3 18.8 18.7 10.5 11.9-1.5 30.8-2.6 32.4l-10.5 18.1-13-17.2-15.8 17.4-4.2-16-9.8 10.8-10.9-9.6-2.7 17.1-23.8-20.2-14.6 17.9-2.7-14.2-6.1 19.8z m22.6-32.1l20.3 17.3 2.7-17.4 14.7 12.9 13.2-14.7 4.3 16 13.2-14.6 12 15.8 6.1-10.5c0.1-0.2 11.2-17.1 2.6-25.7l-0.8-0.8-0.1-1.1c-0.1-0.6-1.7-15.1-12.5-14.3l-62.7 3.3-0.3-0.1c-12-2-45.4-4.8-55.7 5.9l-0.2 0.1c-0.6 0.6-15.7 14.5-7.1 31.9l0.2 0.5 2.8 9.1 18.5-7.3 4.9 9.7 2.9-9.3c0.7-2.3 2.7-3.7 5.1-3.6 2.4 0.1 4.2 1.8 4.7 4.1l1 5.3 10.2-12.5z" fill="#843A5F" /><path d="M511.4 724.8m-170.1 0a170.1 170.1 0 1 0 340.2 0 170.1 170.1 0 1 0-340.2 0Z" fill="#843A5F" /><path d="M511.4 897.9c-95.4 0-173.1-77.6-173.1-173.1 0-95.4 77.6-173.1 173.1-173.1 95.4 0 173.1 77.6 173.1 173.1s-77.7 173.1-173.1 173.1z m0-340.1c-92.1 0-167.1 75-167.1 167.1S419.3 892 511.4 892s167.1-75 167.1-167.1c0-92.2-75-167.1-167.1-167.1z" fill="#843A5F" /><path d="M403.8 769.2V669h13.3v100.2h-13.3zM440.5 769.2V669h37.8c6.7 0 11.7 0.3 15.2 1 4.9 0.8 9 2.4 12.4 4.7 3.3 2.3 6 5.5 8 9.7 2 4.1 3 8.7 3 13.7 0 8.5-2.7 15.7-8.1 21.6-5.4 5.9-15.2 8.9-29.4 8.9h-25.7v40.7h-13.2z m13.2-52.6h25.9c8.6 0 14.7-1.6 18.3-4.8 3.6-3.2 5.4-7.7 5.4-13.5 0-4.2-1.1-7.8-3.2-10.8-2.1-3-4.9-5-8.4-5.9-2.2-0.6-6.4-0.9-12.4-0.9h-25.6v35.9zM529.8 720.4c0-16.6 4.5-29.7 13.4-39.1 8.9-9.4 20.5-14.1 34.6-14.1 9.3 0 17.6 2.2 25 6.6 7.4 4.4 13.1 10.6 17 18.5 3.9 7.9 5.8 16.9 5.8 26.9 0 10.2-2.1 19.3-6.2 27.3s-9.9 14.1-17.4 18.2c-7.5 4.1-15.6 6.2-24.3 6.2-9.4 0-17.9-2.3-25.3-6.8-7.4-4.6-13.1-10.8-16.9-18.7-3.8-7.9-5.7-16.2-5.7-25z m13.7 0.2c0 12.1 3.2 21.6 9.7 28.5 6.5 7 14.6 10.4 24.4 10.4 10 0 18.2-3.5 24.6-10.5 6.4-7 9.7-17 9.7-29.9 0-8.2-1.4-15.3-4.1-21.4-2.8-6.1-6.8-10.8-12.1-14.2-5.3-3.3-11.3-5-17.9-5-9.4 0-17.5 3.2-24.2 9.7-6.7 6.5-10.1 17.3-10.1 32.4z" fill="#FFFFFF" /></svg>